<svg width="210" height="28" viewBox="0 0 210 28" fill="none" xmlns="http://www.w3.org/2000/svg">
<path d="M5.96802 27C5.56002 27 5.23602 26.88 4.99602 26.64C4.75602 26.4 4.61202 26.124 4.56402 25.812L0.640016 2.808C0.616016 2.76 0.604016 2.712 0.604016 2.664C0.604016 2.616 0.604016 2.58 0.604016 2.556C0.604016 2.364 0.676016 2.196 0.820016 2.052C0.988016 1.884 1.16802 1.8 1.36002 1.8H5.82402C6.49602 1.8 6.86802 2.064 6.94002 2.592L9.28002 16.668L11.872 8.352C11.944 8.16 12.064 7.956 12.232 7.74C12.4 7.5 12.676 7.38 13.06 7.38H15.652C16.06 7.38 16.348 7.5 16.516 7.74C16.684 7.956 16.792 8.16 16.84 8.352L19.432 16.632L21.772 2.592C21.844 2.064 22.216 1.8 22.888 1.8H27.352C27.568 1.8 27.748 1.884 27.892 2.052C28.036 2.196 28.108 2.364 28.108 2.556C28.108 2.58 28.108 2.616 28.108 2.664C28.108 2.712 28.108 2.76 28.108 2.808L24.184 25.812C24.136 26.124 23.992 26.4 23.752 26.64C23.512 26.88 23.188 27 22.78 27H19.36C18.952 27 18.64 26.892 18.424 26.676C18.208 26.46 18.064 26.256 17.992 26.064L14.356 15.768L10.72 26.064C10.648 26.256 10.504 26.46 10.288 26.676C10.096 26.892 9.79602 27 9.38802 27H5.96802ZM57.0821 27C56.8181 27 56.6021 26.916 56.4341 26.748C56.2661 26.58 56.1821 26.364 56.1821 26.1V2.7C56.1821 2.436 56.2661 2.22 56.4341 2.052C56.6021 1.884 56.8181 1.8 57.0821 1.8H61.6181C61.8821 1.8 62.0981 1.884 62.2661 2.052C62.4341 2.22 62.5181 2.436 62.5181 2.7V10.692L69.1781 2.484C69.2741 2.34 69.4301 2.196 69.6461 2.052C69.8861 1.884 70.1981 1.8 70.5821 1.8H75.7661C75.9821 1.8 76.1621 1.884 76.3061 2.052C76.4501 2.196 76.5221 2.364 76.5221 2.556C76.5221 2.724 76.4741 2.868 76.3781 2.988L67.7741 13.86L77.0621 25.812C77.1581 25.908 77.2061 26.052 77.2061 26.244C77.2061 26.436 77.1221 26.616 76.9541 26.784C76.8101 26.928 76.6421 27 76.4501 27H71.0861C70.6541 27 70.3181 26.904 70.0781 26.712C69.8621 26.52 69.7181 26.376 69.6461 26.28L62.5181 17.388V26.1C62.5181 26.364 62.4341 26.58 62.2661 26.748C62.0981 26.916 61.8821 27 61.6181 27H57.0821ZM80.522 27C80.258 27 80.042 26.916 79.874 26.748C79.706 26.58 79.622 26.364 79.622 26.1V9.18C79.622 8.916 79.706 8.7 79.874 8.532C80.042 8.364 80.258 8.28 80.522 8.28H84.77C85.01 8.28 85.214 8.364 85.382 8.532C85.574 8.7 85.67 8.916 85.67 9.18V26.1C85.67 26.364 85.574 26.58 85.382 26.748C85.214 26.916 85.01 27 84.77 27H80.522ZM80.486 5.58C80.222 5.58 80.006 5.496 79.838 5.328C79.67 5.16 79.586 4.944 79.586 4.68V1.476C79.586 1.212 79.67 0.995999 79.838 0.827998C80.006 0.635999 80.222 0.539999 80.486 0.539999H84.77C85.034 0.539999 85.25 0.635999 85.418 0.827998C85.61 0.995999 85.706 1.212 85.706 1.476V4.68C85.706 4.944 85.61 5.16 85.418 5.328C85.25 5.496 85.034 5.58 84.77 5.58H80.486ZM99.4637 27C97.9277 27 96.5957 26.76 95.4677 26.28C94.3637 25.776 93.5117 25.008 92.9117 23.976C92.3117 22.92 92.0117 21.564 92.0117 19.908V12.996H89.2037C88.9397 12.996 88.7117 12.912 88.5197 12.744C88.3517 12.576 88.2677 12.36 88.2677 12.096V9.18C88.2677 8.916 88.3517 8.7 88.5197 8.532C88.7117 8.364 88.9397 8.28 89.2037 8.28H92.0117V2.34C92.0117 2.076 92.0957 1.86 92.2637 1.692C92.4557 1.524 92.6717 1.44 92.9117 1.44H97.0877C97.3517 1.44 97.5677 1.524 97.7357 1.692C97.9037 1.86 97.9877 2.076 97.9877 2.34V8.28H102.488C102.752 8.28 102.968 8.364 103.136 8.532C103.304 8.7 103.388 8.916 103.388 9.18V12.096C103.388 12.36 103.304 12.576 103.136 12.744C102.968 12.912 102.752 12.996 102.488 12.996H97.9877V19.404C97.9877 20.22 98.1437 20.868 98.4557 21.348C98.7677 21.828 99.2957 22.068 100.04 22.068H102.812C103.076 22.068 103.292 22.152 103.46 22.32C103.628 22.488 103.712 22.704 103.712 22.968V26.1C103.712 26.364 103.628 26.58 103.46 26.748C103.292 26.916 103.076 27 102.812 27H99.4637ZM115.296 27.36C113.52 27.36 111.948 27.036 110.58 26.388C109.212 25.74 108.12 24.804 107.304 23.58C106.512 22.332 106.08 20.844 106.008 19.116C105.984 18.732 105.972 18.252 105.972 17.676C105.972 17.076 105.984 16.584 106.008 16.2C106.08 14.448 106.512 12.96 107.304 11.736C108.096 10.488 109.176 9.54 110.544 8.892C111.936 8.244 113.52 7.92 115.296 7.92C116.952 7.92 118.368 8.16 119.544 8.64C120.72 9.096 121.68 9.672 122.424 10.368C123.168 11.064 123.72 11.784 124.08 12.528C124.464 13.248 124.668 13.884 124.692 14.436C124.716 14.676 124.632 14.892 124.44 15.084C124.248 15.252 124.032 15.336 123.792 15.336H119.22C118.956 15.336 118.752 15.276 118.608 15.156C118.464 15.036 118.332 14.856 118.212 14.616C117.924 13.872 117.552 13.344 117.096 13.032C116.664 12.72 116.1 12.564 115.404 12.564C114.444 12.564 113.7 12.876 113.172 13.5C112.668 14.124 112.392 15.084 112.344 16.38C112.32 17.34 112.32 18.192 112.344 18.936C112.392 20.256 112.668 21.216 113.172 21.816C113.7 22.416 114.444 22.716 115.404 22.716C116.148 22.716 116.736 22.56 117.168 22.248C117.6 21.936 117.948 21.408 118.212 20.664C118.332 20.424 118.464 20.244 118.608 20.124C118.752 20.004 118.956 19.944 119.22 19.944H123.792C124.032 19.944 124.248 20.04 124.44 20.232C124.632 20.4 124.716 20.604 124.692 20.844C124.668 21.252 124.548 21.732 124.332 22.284C124.116 22.812 123.78 23.376 123.324 23.976C122.868 24.576 122.268 25.14 121.524 25.668C120.804 26.172 119.928 26.58 118.896 26.892C117.864 27.204 116.664 27.36 115.296 27.36ZM128.827 27C128.563 27 128.347 26.916 128.179 26.748C128.011 26.58 127.927 26.364 127.927 26.1V2.34C127.927 2.076 128.011 1.86 128.179 1.692C128.347 1.524 128.563 1.44 128.827 1.44H133.435C133.699 1.44 133.915 1.524 134.083 1.692C134.251 1.86 134.335 2.076 134.335 2.34V10.368C134.983 9.624 135.775 9.036 136.711 8.604C137.671 8.148 138.775 7.92 140.023 7.92C141.415 7.92 142.651 8.232 143.731 8.856C144.835 9.48 145.699 10.404 146.323 11.628C146.947 12.828 147.259 14.304 147.259 16.056V26.1C147.259 26.364 147.175 26.58 147.007 26.748C146.839 26.916 146.623 27 146.359 27H141.715C141.475 27 141.259 26.916 141.067 26.748C140.899 26.58 140.815 26.364 140.815 26.1V16.272C140.815 15.144 140.539 14.28 139.987 13.68C139.459 13.056 138.667 12.744 137.611 12.744C136.627 12.744 135.835 13.056 135.235 13.68C134.635 14.28 134.335 15.144 134.335 16.272V26.1C134.335 26.364 134.251 26.58 134.083 26.748C133.915 26.916 133.699 27 133.435 27H128.827ZM159.981 27.36C157.149 27.36 154.893 26.592 153.213 25.056C151.533 23.52 150.657 21.24 150.585 18.216C150.585 18.048 150.585 17.832 150.585 17.568C150.585 17.304 150.585 17.1 150.585 16.956C150.657 15.06 151.077 13.44 151.845 12.096C152.637 10.728 153.717 9.696 155.085 9C156.477 8.28 158.097 7.92 159.945 7.92C162.057 7.92 163.797 8.34 165.165 9.18C166.557 10.02 167.601 11.16 168.297 12.6C168.993 14.04 169.341 15.684 169.341 17.532V18.396C169.341 18.66 169.245 18.876 169.053 19.044C168.885 19.212 168.681 19.296 168.441 19.296H156.921C156.921 19.32 156.921 19.356 156.921 19.404C156.921 19.452 156.921 19.5 156.921 19.548C156.945 20.244 157.065 20.88 157.281 21.456C157.497 22.032 157.833 22.488 158.289 22.824C158.745 23.16 159.297 23.328 159.945 23.328C160.425 23.328 160.821 23.256 161.133 23.112C161.469 22.944 161.745 22.764 161.961 22.572C162.177 22.356 162.345 22.176 162.465 22.032C162.681 21.792 162.849 21.648 162.969 21.6C163.113 21.528 163.329 21.492 163.617 21.492H168.081C168.321 21.492 168.513 21.564 168.657 21.708C168.825 21.828 168.897 22.008 168.873 22.248C168.849 22.656 168.645 23.148 168.261 23.724C167.877 24.3 167.313 24.876 166.569 25.452C165.849 26.004 164.937 26.46 163.833 26.82C162.729 27.18 161.445 27.36 159.981 27.36ZM156.921 15.732H163.005V15.66C163.005 14.892 162.885 14.22 162.645 13.644C162.429 13.068 162.081 12.624 161.601 12.312C161.145 12 160.593 11.844 159.945 11.844C159.297 11.844 158.745 12 158.289 12.312C157.857 12.624 157.521 13.068 157.281 13.644C157.041 14.22 156.921 14.892 156.921 15.66V15.732ZM173.616 27C173.352 27 173.136 26.916 172.968 26.748C172.8 26.58 172.716 26.364 172.716 26.1V9.18C172.716 8.916 172.8 8.7 172.968 8.532C173.136 8.364 173.352 8.28 173.616 8.28H177.756C178.02 8.28 178.236 8.364 178.404 8.532C178.572 8.7 178.656 8.916 178.656 9.18V10.548C179.28 9.804 180.096 9.18 181.104 8.676C182.112 8.172 183.3 7.92 184.668 7.92C186.06 7.92 187.284 8.232 188.34 8.856C189.42 9.48 190.26 10.404 190.86 11.628C191.484 12.828 191.796 14.304 191.796 16.056V26.1C191.796 26.364 191.7 26.58 191.508 26.748C191.34 26.916 191.136 27 190.896 27H186.36C186.12 27 185.904 26.916 185.712 26.748C185.544 26.58 185.46 26.364 185.46 26.1V16.272C185.46 15.144 185.184 14.28 184.632 13.68C184.104 13.056 183.312 12.744 182.256 12.744C181.272 12.744 180.48 13.056 179.88 13.68C179.304 14.28 179.016 15.144 179.016 16.272V26.1C179.016 26.364 178.92 26.58 178.728 26.748C178.56 26.916 178.356 27 178.116 27H173.616Z" fill="#10101F"/>
<path d="M43.127 27C42.887 27 42.671 26.916 42.479 26.748C42.311 26.58 42.227 26.364 42.227 26.1V22.032H31.031C30.791 22.032 30.575 21.948 30.383 21.78C30.215 21.612 30.131 21.396 30.131 21.132V17.712C30.131 17.496 30.167 17.304 30.239 17.136C30.335 16.944 30.431 16.764 30.527 16.596L41.003 2.412C41.315 2.004 41.759 1.8 42.335 1.8H47.555C47.819 1.8 48.035 1.884 48.203 2.052C48.395 2.22 48.491 2.436 48.491 2.7V16.668H51.659C51.947 16.668 52.175 16.764 52.343 16.956C52.511 17.124 52.595 17.328 52.595 17.568V21.132C52.595 21.396 52.499 21.612 52.307 21.78C52.139 21.948 51.935 22.032 51.695 22.032H48.491V26.1C48.491 26.364 48.395 26.58 48.203 26.748C48.035 26.916 47.819 27 47.555 27H43.127ZM36.323 16.92H42.371V8.424L36.323 16.92ZM204.198 27C203.934 27 203.718 26.916 203.55 26.748C203.382 26.58 203.298 26.364 203.298 26.1V21.528C203.298 21.288 203.382 21.084 203.55 20.916C203.718 20.724 203.934 20.628 204.198 20.628H208.734C208.998 20.628 209.214 20.724 209.382 20.916C209.574 21.084 209.67 21.288 209.67 21.528V26.1C209.67 26.364 209.574 26.58 209.382 26.748C209.214 26.916 208.998 27 208.734 27H204.198Z" fill="#FF5C00"/>
</svg>
